The Seagull (1996)

Plot: After agonizing for 2 weeks and finally coming to terms with being in love with another woman, Valéria (Natacha Régnier) comes out to and confesses her love for her best friend Laurence (Marion Cotillard). 

Cast:
Natacha Régnier ... Valéria
Marion Cotillard ... Laurence
Nils Tavernier ... Christophe

Details
Original title: La Mouette
Genre: Short | Drama | Romance
Runtime: 5 min
Country: France
Audio: French
Subtitles: English

Director: Nils Tavernier
Writers: Clarisse Battas, Nils Tavernier

IMDb: http://www.imdb.com/title/tt0172827/

--------------------------------------------------------------------------------

MediaInfo:

General
Format                                   : AVI
Format/Info                              : Audio Video Interleave
File size                                : 53.6 MiB
Duration                                 : 4mn 47s
Overall bit rate                         : 1 567 Kbps
Writing application                      : FairUse Wizard - http://fairusewizard.com
Writing library                          : VirtualDub build 28346/release

Video
ID                                       : 0
Format                                   : MPEG-4 Visual
Format profile                           : Advanced Simple@L5
Format settings, BVOP                    : 2
Format settings, QPel                    : No
Format settings, GMC                     : No warppoints
Format settings, Matrix                  : Default (H.263)
Muxing mode                              : Packed bitstream
Codec ID                                 : XVID
Codec ID/Hint                            : XviD
Duration                                 : 4mn 47s
Bit rate                                 : 1 427 Kbps
Width                                    : 640 pixels
Height                                   : 360 pixels
Display aspect ratio                     : 16:9
Frame rate                               : 29.970 fps
Color space                              : YUV
Chroma subsampling                       : 4:2:0
Bit depth                                : 8 bits
Scan type                                : Progressive
Compression mode                         : Lossy
Bits/(Pixel*Frame)                       : 0.207
Stream size                              : 48.8 MiB (91%)
Writing library                          : XviD 1.0.1 (UTC 2004-06-05)

Audio
ID                                       : 1
Format                                   : MPEG Audio
Format version                           : Version 1
Format profile                           : Layer 3
Mode                                     : Joint stereo
Mode extension                           : MS Stereo
Codec ID                                 : 55
Codec ID/Hint                            : MP3
Duration                                 : 4mn 47s
Bit rate mode                            : Constant
Bit rate                                 : 128 Kbps
Channel(s)                               : 2 channels
Sampling rate                            : 48.0 KHz
Compression mode                         : Lossy
Stream size                              : 4.38 MiB (8%)
Alignment                                : Aligned on interleaves
Interleave, duration                     : 33 ms (1.00 video frame)
Interleave, preload duration             : 504 ms

--------------------------------------------------------------------------------

Screenshots:  
http://i.imgur.com/5E2AFK9.jpg
 
http://i.imgur.com/ugqTYqp.jpg
 
http://i.imgur.com/BMdhLbk.jpg
 
http://i.imgur.com/z1D376p.jpg
 
http://i.imgur.com/u9SPZ10.jpg
 
http://i.imgur.com/XikN85f.jpg
 
http://i.imgur.com/NKW6Qax.jpg
 
http://i.imgur.com/DsqDXNz.jpg